# xmcd
#
# Track frame offsets:
#	150
#	12597
#	24430
#	36872
#	51015
#	63507
#	75657
#	86027
#	99077
#	111587
#	128055
#	139215
#
# Disc length: 2039 seconds
#
# Revision: 0
# Processed by: cddbd v1.4PL0 Copyright (c) Steve Scherf et al.
# Submitted via: EasyCDDAExtractor 4.6.0.1
#
DISCID=9c07f50c
DTITLE=Chitãozinho and Xororó - Amante Amada
DYEAR=1980
DGENRE=Sertanejo
TTITLE0=Amante Amada
TTITLE1=Agüenta Coração
TTITLE2=Pais e Filhos
TTITLE3=Vida e Saudade
TTITLE4=Brigas de Amor
TTITLE5=Não Consigo Repartir Você
TTITLE6=Mulher de Ninguém
TTITLE7=Gamado Nela
TTITLE8=Aquela Blusa
TTITLE9=Amor a 3 (Uma mulher e dois homens)
TTITLE10=Anjo Mau
TTITLE11=Ponto Negro
EXTD=
EXTT0=
EXTT1=
EXTT2=
EXTT3=
EXTT4=
EXTT5=
EXTT6=
EXTT7=
EXTT8=
EXTT9=
EXTT10=
EXTT11=
PLAYORDER=
